<?xml version="1.0" encoding="UTF-8" standalone="no"?>
<svg
   xmlns:dc="http://purl.org/dc/elements/1.1/"
   xmlns:cc="http://creativecommons.org/ns#"
   xmlns:rdf="http://www.w3.org/1999/02/22-rdf-syntax-ns#"
   xmlns:svg="http://www.w3.org/2000/svg"
   xmlns="http://www.w3.org/2000/svg"
   xmlns:sodipodi="http://sodipodi.sourceforge.net/DTD/sodipodi-0.dtd"
   xmlns:inkscape="http://www.inkscape.org/namespaces/inkscape"
   version="1.1"
   id="svg2"
   xml:space="preserve"
   width="803.77332"
   height="135.57333"
   viewBox="0 0 803.77332 135.57333"
   sodipodi:docname="Easee logo - black R.eps"><metadata
     id="metadata8"><rdf:RDF><cc:Work
         rdf:about=""><dc:format>image/svg+xml</dc:format><dc:type
           rdf:resource="http://purl.org/dc/dcmitype/StillImage" /></cc:Work></rdf:RDF></metadata><defs
     id="defs6" /><sodipodi:namedview
     pagecolor="#ffffff"
     bordercolor="#666666"
     borderopacity="1"
     objecttolerance="10"
     gridtolerance="10"
     guidetolerance="10"
     inkscape:pageopacity="0"
     inkscape:pageshadow="2"
     inkscape:window-width="640"
     inkscape:window-height="480"
     id="namedview4" /><g
     id="g10"
     inkscape:groupmode="layer"
     inkscape:label="ink_ext_XXXXXX"
     transform="matrix(1.3333333,0,0,-1.3333333,0,135.57333)"><g
       id="g12"
       transform="scale(0.1)"><path
         d="m 2083.65,578.07 3.09,-32.187 c 1.3,-13.449 1.93,-25.676 1.93,-37.387 0,-217.848 -177.24,-395.086 -395.09,-395.086 -217.86,0 -395.1,177.238 -395.1,395.086 0,11.75 0.64,23.988 1.94,37.387 l 3.12,32.215 -109.66,-160.489 0.65,-3.449 C 1239.76,174.406 1449.64,0.390625 1693.58,0.390625 c 153,0 298.86,70.257775 395.09,189.125375 V 48.3906 h 113.02 V 405.156 L 2083.65,578.07"
         style="fill:#231f20;fill-opacity:1;fill-rule:nonzero;stroke:none"
         id="path14" /><path
         d="m 2831.8,521.293 5.1,-1.855 c 7.66,-2.793 15.17,-5.532 22.46,-8.243 7.28,-2.707 15.08,-5.531 23.31,-8.515 l 5.23,-1.899 c 88.36,-31.98 261.16,-90.957 280.21,-185.875 l 82.22,95.391 c -66.48,105.777 -222.83,160.137 -323.96,196.758 l -4.1,1.48 c -8.34,3.02 -16.23,5.883 -23.55,8.606 -9.15,3.398 -18.63,6.847 -28.37,10.382 -85.51,31.082 -202.63,73.661 -202.63,134.227 0,76.465 96.77,141.066 211.32,141.066 114.54,0 211.31,-64.601 211.31,-141.066 v -8.508 h 113.01 v 8.508 c 0,140.098 -145.49,254.08 -324.32,254.08 -178.85,0 -324.35,-113.982 -324.35,-254.08 0,-139.758 160.17,-197.957 277.11,-240.457"
         style="fill:#231f20;fill-opacity:1;fill-rule:nonzero;stroke:none"
         id="path16" /><path
         d="m 4871.52,621.699 c 49.95,166.321 203.98,281.504 378.42,281.504 174.43,0 328.45,-115.183 378.41,-281.504 z M 4806.6,512.336 h 951.34 c 0,135.195 -57.91,265.957 -153.26,359.133 -95.52,93.347 -221.51,144.761 -354.74,144.761 -245.33,0 -457.13,-173.074 -500.22,-419.937 l 56.88,-83.957"
         style="fill:#231f20;fill-opacity:1;fill-rule:nonzero;stroke:none"
         id="path18" /><path
         d="m 4504.18,506.215 h -879.37 l -59.6,-87.961 v 0 c 39.06,-235.305 255.5,-418.023531 499.85,-418.023531 139.35,0 274.11,58.160131 369.72,159.566531 l 5.83,6.183 -82.23,77.528 -5.84,-6.192 C 4277.1,157.309 4175,113.242 4065.06,113.242 c -173.65,0 -327.46,114.543 -377.92,279.946 h 893.91 l -76.87,113.027"
         style="fill:#231f20;fill-opacity:1;fill-rule:nonzero;stroke:none"
         id="path20" /><path
         d="m 191.547,744.418 c 67.25,89.207 170.226,147.625 281.769,157.312 116.981,10.168 234.161,-32.878 316.446,-116.796 44.699,-45.586 78.25,-101.836 96.609,-163.016 -85.281,0 -725.406,0 -756.445,0 13.156,44.117 34.043,85.625 61.621,122.5 z M 5604.57,333.363 C 5534,192.855 5397.35,114.066 5251.4,113.078 c -124.25,-0.84 -236.41,54.629 -325.65,138.379 -85.72,80.449 -148.81,179.863 -214.54,276.32 -62.56,91.793 -122.49,185.996 -197.29,268.563 -77.59,85.644 -171.47,158.359 -282.47,194.355 -121.89,39.535 -258.24,33.955 -376.34,-15.789 C 3640.1,884.359 3514.62,672.199 3390.3,486.984 3327.62,393.613 3262.47,299.621 3175.71,226.723 3080.6,146.809 2962.36,102.883 2837.4,114.555 2581.05,138.488 2439.03,380.5 2309.45,573.012 c -122.84,182.519 -263.08,375.41 -489.8,429.138 -124.59,29.53 -258.41,13.82 -372.41,-44.451 C 1345.92,905.91 1263.36,824.746 1193.41,736.203 1123.36,647.504 1063.05,551.074 999.605,457.668 935.68,363.574 866.051,269.934 773.238,202.27 672.465,128.801 544.82,95.0039 421.703,122.68 304.625,148.996 203.758,228.891 151.852,337.191 c -26.329,54.93 -38.68,114.59 -38.782,175.352 66.711,0 784.356,0 838.203,0 l 57.797,84.141 c -1.96,14.617 -9.01,40.73 -12.804,54.05 -7.227,25.391 -16.805,50.227 -28.028,74.121 -21.57,45.958 -50.984,87.696 -84.894,125.411 C 735.523,1014.72 498.559,1060.04 299.984,971.723 116.176,889.965 1.34375,706.75 0.015625,508.203 -1.19531,328.188 99.8398,157.094 255.277,67.6016 413.375,-23.4297 612.164,-20.0313 771.227,66.8594 914.098,144.895 1014.22,277.121 1103.46,409.504 c 50.14,74.375 98.96,150.078 152.33,222.195 51.25,69.27 108.83,135.434 179.22,185.918 75.17,53.918 163.53,85.559 256.45,85.969 93.13,0.41 181.94,-30.273 257.69,-83.84 70.76,-50.035 128.67,-116.023 180.1,-185.215 54.6,-73.433 104.32,-150.703 155.44,-226.558 89.64,-132.961 190.53,-265.743 334.55,-343.2816 165.7,-89.2109 370.94,-85.7695 533.92,7.9883 140.28,80.7113 238.04,213.0233 326.64,344.8713 50.53,75.176 99.85,151.75 154.36,224.14 52.28,69.434 111.47,135.379 183.86,184.356 76.7,51.887 166.27,80 259.12,77.375 91.78,-2.602 178.34,-35.899 251.87,-90.141 70.11,-51.707 127.34,-118.765 178.52,-188.726 51.55,-70.45 99.15,-143.977 147.94,-216.34 89.77,-133.125 190.88,-266.102 335.27,-343.4767 171.57,-91.9492 386.54,-86.1875 547.98,25.3789 73.31,50.6638 130.09,119.4458 169.86,198.9568 -19.46,8.301 -92.3,39.297 -104.01,44.289"
         style="fill:#231f20;fill-opacity:1;fill-rule:nonzero;stroke:none"
         id="path22" /><path
         d="m 5903.35,998.246 c -58.72,0 -106.49,-47.773 -106.49,-106.484 0,-58.711 47.77,-106.485 106.49,-106.485 58.71,0 106.47,47.774 106.47,106.485 0,58.711 -47.76,106.484 -106.47,106.484 z m 0,-231.484 c -68.94,0 -125,56.074 -125,125 0,68.926 56.06,124.998 125,124.998 68.92,0 125,-56.072 125,-124.998 0,-68.926 -56.08,-125 -125,-125"
         style="fill:#231f20;fill-opacity:1;fill-rule:nonzero;stroke:none"
         id="path24" /><path
         d="m 5883.21,895.844 h 15.01 c 10.07,0 17.36,1.863 21.88,5.601 4.52,3.735 6.79,9.289 6.79,16.633 0,7.481 -2.44,12.844 -7.32,16.106 -4.89,3.25 -12.24,4.882 -22.07,4.882 h -14.29 z m 0,-17.91 v -52.805 h -21.61 v 132.199 h 37.35 c 17.06,0 29.68,-3.195 37.88,-9.59 8.2,-6.386 12.3,-16.027 12.3,-28.937 0,-16.453 -8.56,-28.184 -25.68,-35.164 l 37.35,-58.508 h -24.6 l -31.64,52.805 h -21.35"
         style="fill:#231f20;fill-opacity:1;fill-rule:nonzero;stroke:none"
         id="path26" /></g></g></svg>
