<svg width="40" height="40" viewBox="0 0 40 40" fill="none" xmlns="http://www.w3.org/2000/svg">
<path fill-rule="evenodd" clip-rule="evenodd" d="M20 40C31.0459 40 40 31.0459 40 20C40 8.9541 31.0459 0 20 0C8.9541 0 0 8.9541 0 20C0 31.0459 8.9541 40 20 40ZM28 20C30.209 20 32 17.7612 32 15C32 12.2388 30.209 10 28 10C25.791 10 24 12.2388 24 15C24 17.7612 25.791 20 28 20ZM16 15C16 17.7612 14.209 20 12 20C9.79102 20 8 17.7612 8 15C8 12.2388 9.79102 10 12 10C14.209 10 16 12.2388 16 15ZM12.5801 30.96L12.73 30.9849L12.9351 29.8252H13.77L13.5698 30.96L13.7202 30.9849L13.9248 29.8252H14.5249V29.6748H13.9502L14.1001 28.8252H14.625V28.6748H14.1299L14.3301 27.54L14.1802 27.5151L13.9751 28.6748H13.1401L13.3398 27.54L13.1899 27.5151L12.9849 28.6748H12.3848V28.8252H12.96L12.8101 29.6748H12.2852V29.8252H12.7798L12.5801 30.96ZM12.96 29.6748L13.1099 28.8252H13.9502L13.7998 29.6748H12.96ZM15.6753 30.71H15.3452V31H15.6753V30.71ZM15.4351 30.3252H15.585V27.5H15.4351V30.3252ZM17.2964 31H17.4463V30.7651C17.7729 30.7515 18.0229 30.6782 18.1963 30.5449C18.3696 30.4082 18.4565 30.23 18.4565 30.0098C18.4565 29.9165 18.4448 29.8335 18.4214 29.7598C18.3979 29.6865 18.3564 29.6216 18.2964 29.5649C18.2397 29.5083 18.1865 29.4614 18.1362 29.4248C18.0898 29.3882 18.0161 29.3516 17.9165 29.3149C17.8198 29.2783 17.7461 29.2515 17.6963 29.2349C17.6465 29.2183 17.563 29.1934 17.4463 29.1602V27.8901C17.6279 27.8975 17.7817 27.9268 17.9087 27.9771C18.0029 28.0142 18.082 28.0635 18.1465 28.125L18.2461 28.0151C18.083 27.8418 17.8164 27.75 17.4463 27.7402V27.5H17.2964V27.7402C17.0498 27.75 16.8481 27.8184 16.6914 27.9448C16.5347 28.0684 16.4565 28.2534 16.4565 28.5C16.4565 28.6167 16.478 28.7183 16.5215 28.8052C16.5645 28.8916 16.6299 28.9648 16.7163 29.0249C16.8062 29.0815 16.8931 29.1284 16.9766 29.165C17.0596 29.1982 17.1665 29.2349 17.2964 29.2749V30.6152C16.9565 30.6084 16.7046 30.5298 16.5415 30.3799L16.4414 30.4902C16.5356 30.5903 16.6733 30.6631 16.8545 30.709C16.981 30.7407 17.1279 30.7598 17.2964 30.7651V31ZM17.4463 30.6099V29.3198C17.5596 29.3535 17.6465 29.3818 17.7065 29.4048C17.7695 29.4248 17.8447 29.4551 17.9312 29.4951C18.0215 29.5352 18.0879 29.5767 18.1313 29.6201C18.1782 29.6636 18.2178 29.7202 18.2515 29.79C18.2881 29.8564 18.3062 29.9316 18.3062 30.0151C18.3062 30.165 18.2329 30.2983 18.0864 30.415C17.9429 30.5283 17.7295 30.5933 17.4463 30.6099ZM17.2964 27.8901V29.1152C17.0728 29.0483 16.9014 28.9717 16.7812 28.8848C16.6646 28.7983 16.6064 28.6733 16.6064 28.5098C16.6064 28.1201 16.8364 27.9136 17.2964 27.8901ZM20.5801 29.7046C20.6865 29.7549 20.8276 29.7798 21.0029 29.7798H21.5083V29.6299H21.0029C20.6567 29.6299 20.4834 29.5166 20.4834 29.29C20.4834 29.0967 20.5933 29 20.813 29C20.9165 29 21.0229 29.0386 21.1333 29.1152L21.373 29.2949V28.9951C21.373 28.6519 21.2729 28.3398 21.0732 28.0601C20.8765 27.7798 20.6299 27.6401 20.333 27.6401C19.9731 27.6401 19.6748 27.79 19.438 28.0898C19.293 28.2739 19.1924 28.4932 19.1362 28.7476C19.1006 28.9077 19.083 29.082 19.083 29.27C19.083 29.8169 19.1963 30.25 19.4233 30.5698C19.5469 30.7446 19.6992 30.8716 19.8804 30.9507C20.0312 31.0166 20.2021 31.0498 20.3931 31.0498C20.6333 31.0498 20.8613 30.9917 21.0781 30.875C21.2983 30.7549 21.4834 30.5884 21.6333 30.375L21.5083 30.29C21.3716 30.4834 21.2046 30.6333 21.0083 30.7402C20.8149 30.8467 20.6099 30.8999 20.3931 30.8999C20.0229 30.8999 19.7363 30.7568 19.5332 30.4702C19.333 30.1802 19.2334 29.7798 19.2334 29.27C19.2334 28.8198 19.3384 28.4614 19.5483 28.1948C19.7583 27.9248 20.02 27.79 20.333 27.79C20.5796 27.79 20.79 27.915 20.9634 28.165C21.1367 28.415 21.2231 28.6919 21.2231 28.9951C21.0933 28.8984 20.9565 28.8501 20.813 28.8501C20.6831 28.8501 20.5698 28.8867 20.4731 28.96C20.3799 29.0298 20.333 29.1401 20.333 29.29C20.333 29.4883 20.4155 29.6265 20.5801 29.7046ZM23.7573 29.6602C23.8242 29.5898 23.9072 29.5552 24.0073 29.5552C24.1006 29.5552 24.1821 29.5884 24.2524 29.6548C24.3223 29.7217 24.3574 29.8052 24.3574 29.9048C24.3574 29.9985 24.3242 30.0801 24.2573 30.1499C24.1909 30.2202 24.1074 30.2549 24.0073 30.2549C23.9141 30.2549 23.8325 30.2217 23.7622 30.1548C23.6924 30.0884 23.6572 30.0049 23.6572 29.9048C23.6572 29.8115 23.6909 29.73 23.7573 29.6602ZM23.6572 29.5498C23.5571 29.6436 23.5073 29.7617 23.5073 29.9048C23.5073 30.0386 23.5542 30.1548 23.6475 30.2549C23.7441 30.355 23.8638 30.4048 24.0073 30.4048C24.0913 30.4048 24.1685 30.3862 24.2393 30.3496C24.2808 30.3281 24.3203 30.2998 24.3574 30.2651C24.4575 30.1685 24.5073 30.0483 24.5073 29.9048C24.5073 29.7715 24.459 29.6548 24.3623 29.5552C24.269 29.4551 24.1509 29.4048 24.0073 29.4048C23.874 29.4048 23.7573 29.4531 23.6572 29.5498ZM22.4473 28.3501C22.5142 28.2798 22.5972 28.2451 22.6973 28.2451C22.7905 28.2451 22.8726 28.2783 22.9424 28.3452C23.0122 28.4116 23.0474 28.4951 23.0474 28.5952C23.0474 28.6885 23.0142 28.77 22.9473 28.8398C22.8809 28.9102 22.7974 28.9448 22.6973 28.9448C22.604 28.9448 22.5225 28.9116 22.4521 28.8452C22.3823 28.7783 22.3472 28.6948 22.3472 28.5952C22.3472 28.5015 22.3809 28.4199 22.4473 28.3501ZM22.2227 28.4307C22.2056 28.4814 22.1973 28.5361 22.1973 28.5952C22.1973 28.7285 22.2441 28.8452 22.3374 28.9448C22.4341 29.0449 22.5542 29.0952 22.6973 29.0952C22.8306 29.0952 22.9473 29.0483 23.0474 28.9551C23.1475 28.8584 23.1973 28.7383 23.1973 28.5952C23.1973 28.4614 23.1489 28.3452 23.0522 28.2451C23.0088 28.1982 22.9595 28.1621 22.9048 28.1372C22.8428 28.1094 22.7734 28.0952 22.6973 28.0952C22.6309 28.0952 22.5684 28.1069 22.5103 28.1309C22.4517 28.1553 22.3975 28.1919 22.3472 28.2402C22.2886 28.2949 22.2471 28.3584 22.2227 28.4307ZM22.4873 30.0098L22.5923 30.1152L24.2173 28.4902L24.1123 28.3848L22.4873 30.0098ZM27.0327 30.3149L25.6177 27.6499H27.2827V27.5H25.3677L26.0825 28.8501C25.7627 28.8936 25.5142 29.0068 25.3374 29.1899C25.1606 29.3735 25.0723 29.6035 25.0723 29.8799C25.0723 30.2334 25.1724 30.5132 25.3726 30.7202C25.5723 30.9233 25.8057 31.0249 26.0723 31.0249C26.2886 31.0249 26.4829 30.9819 26.6553 30.8955C26.7915 30.8271 26.9136 30.7319 27.0225 30.6099L27.2275 31H27.3975L27.1226 30.4849C27.3291 30.1816 27.4326 29.7969 27.4326 29.3301H27.2827C27.2827 29.71 27.1992 30.0386 27.0327 30.3149ZM26.1626 28.9951L26.9375 30.4551C26.7144 30.7349 26.4258 30.875 26.0723 30.875C25.8525 30.875 25.6558 30.7798 25.4824 30.5898C25.3091 30.3999 25.2227 30.1636 25.2227 29.8799C25.2227 29.7676 25.2441 29.6626 25.2866 29.5659C25.3301 29.4678 25.395 29.3774 25.4824 29.2949C25.6558 29.1318 25.8823 29.0317 26.1626 28.9951Z" fill="#4E4E4E"/>
</svg>
