<svg width="40" height="40" viewBox="0 0 40 40" fill="none" xmlns="http://www.w3.org/2000/svg">
<path fill-rule="evenodd" clip-rule="evenodd" d="M40 20C40 31.0459 31.0459 40 20 40C8.9541 40 0 31.0459 0 20C0 8.9541 8.9541 0 20 0C31.0459 0 40 8.9541 40 20ZM32 15C32 17.7612 30.209 20 28 20C25.791 20 24 17.7612 24 15C24 12.2388 25.791 10 28 10C30.209 10 32 12.2388 32 15ZM12 20C14.209 20 16 17.7612 16 15C16 12.2388 14.209 10 12 10C9.79102 10 8 12.2388 8 15C8 17.7612 9.79102 20 12 20Z" fill="white"/>
</svg>
