<svg width="332" height="61" viewBox="0 0 332 61" fill="none" xmlns="http://www.w3.org/2000/svg">
<path d="M114.753 26.3191L114.923 28.2502C114.995 29.057 115.029 29.7906 115.029 30.4932C115.029 43.5629 105.268 54.1962 93.2705 54.1962C81.2723 54.1962 71.5111 43.5629 71.5111 30.4932C71.5111 29.7883 71.5464 29.0541 71.618 28.2502L71.7898 26.3175L65.7505 35.9459L65.7863 36.1529C68.2772 50.5368 79.836 60.9768 93.2705 60.9768C101.697 60.9768 109.73 56.7617 115.029 49.6303V58.0971H121.254V36.693L114.753 26.3191Z" fill="#505050"/>
<path d="M155.956 29.7255L156.237 29.8368C156.659 30.0043 157.072 30.1687 157.474 30.3313C157.875 30.4937 158.304 30.6631 158.757 30.8422L159.046 30.9561C163.912 32.8747 173.428 36.413 174.478 42.1076L179.006 36.3847C175.344 30.0386 166.734 26.7773 161.164 24.5802L160.938 24.4914C160.479 24.3103 160.045 24.1385 159.641 23.9751C159.137 23.7713 158.615 23.5643 158.079 23.3523C153.37 21.4875 146.919 18.933 146.919 15.2994C146.919 10.7119 152.249 6.83615 158.558 6.83615C164.866 6.83615 170.195 10.7119 170.195 15.2994V15.8098H176.419V15.2994C176.419 6.89423 168.406 0.0559158 158.558 0.0559158C148.708 0.0559158 140.695 6.89423 140.695 15.2994C140.695 23.6841 149.516 27.1757 155.956 29.7255Z" fill="#505050"/>
<path d="M268.29 23.7016C271.041 13.7233 279.524 6.81289 289.131 6.81289C298.737 6.81289 307.219 13.7233 309.971 23.7016H268.29ZM264.714 30.2628H317.108C317.108 22.1518 313.918 14.3068 308.667 8.71676C303.407 3.11644 296.468 0.0318718 289.131 0.0318718C275.619 0.0318718 263.955 10.4154 261.582 25.2258L264.714 30.2628Z" fill="#505050"/>
<path d="M248.059 30.6301H199.63L196.347 35.9073C198.498 50.0243 210.418 60.9865 223.875 60.9865C231.55 60.9865 238.972 57.4972 244.237 51.4133L244.558 51.0424L240.03 46.3911L239.708 46.7626C235.553 51.5626 229.93 54.2064 223.875 54.2064C214.312 54.2064 205.841 47.3344 203.062 37.4111H252.293L248.059 30.6301Z" fill="#505050"/>
<path d="M10.5488 16.3392C14.2525 10.9873 19.9237 7.48252 26.0667 6.90135C32.5092 6.29132 38.9627 8.87385 43.4944 13.9085C45.9561 16.6434 47.8039 20.0181 48.815 23.6886C44.1183 23.6886 8.86458 23.6886 7.15517 23.6886C7.87971 21.0418 9.03002 18.5515 10.5488 16.3392ZM308.661 41.0003C304.775 49.4301 297.249 54.157 289.211 54.2162C282.368 54.2666 276.191 50.9388 271.276 45.9142C266.555 41.0877 263.081 35.1234 259.461 29.3365C256.016 23.8294 252.715 18.1778 248.596 13.2242C244.322 8.086 239.152 3.72349 233.039 1.56392C226.326 -0.807964 218.817 -0.473194 212.313 2.51118C200.472 7.94351 193.561 20.672 186.714 31.7839C183.262 37.3856 179.674 43.0247 174.896 47.3982C169.658 52.1926 163.146 54.8279 156.264 54.1276C142.146 52.6918 134.325 38.1724 127.188 26.6227C120.423 15.6725 112.7 4.10007 100.214 0.876682C93.352 -0.894958 85.9821 0.0475616 79.7038 3.54351C74.1238 6.65057 69.577 11.52 65.7246 16.8321C61.8667 22.1535 58.5452 27.9388 55.0511 33.5427C51.5306 39.1878 47.6959 44.8057 42.5844 48.8652C37.0345 53.273 30.0047 55.3006 23.2242 53.6402C16.7764 52.0614 11.2213 47.2681 8.3627 40.7707C6.91268 37.4752 6.23247 33.8959 6.22685 30.2505C9.90084 30.2505 49.4238 30.2505 52.3893 30.2505L55.5724 25.2025C55.4645 24.3255 55.0762 22.7589 54.8672 21.9598C54.4692 20.4364 53.9417 18.9464 53.3236 17.5129C52.1357 14.7557 50.5158 12.2516 48.6483 9.98891C40.5073 0.122551 27.4569 -2.59641 16.5208 2.70214C6.39791 7.60718 0.073737 18.5991 0.000592923 30.5109C-0.0660971 41.3108 5.49822 51.5755 14.0586 56.9446C22.7656 62.406 33.7135 62.2021 42.4736 56.9891C50.342 52.3074 55.856 44.3745 60.7707 36.4323C63.5321 31.9702 66.2208 27.4284 69.16 23.1018C71.9825 18.9459 75.1537 14.9764 79.0303 11.9477C83.1701 8.71289 88.0364 6.81459 93.1538 6.79C98.2827 6.7654 103.174 8.60622 107.346 11.82C111.243 14.8218 114.432 18.7807 117.264 22.9319C120.271 27.3374 123.009 31.9732 125.825 36.5241C130.762 44.5011 136.318 52.4673 144.25 57.1192C153.375 62.4714 164.678 62.2649 173.654 56.6399C181.38 51.7977 186.764 43.8597 191.643 35.9495C194.426 31.4393 197.142 26.8453 200.144 22.5023C203.024 18.3366 206.283 14.3803 210.27 11.4419C214.494 8.32898 219.427 6.64235 224.541 6.79984C229.595 6.95594 234.362 8.95358 238.412 12.2078C242.273 15.31 245.425 19.3331 248.244 23.5304C251.083 27.757 253.704 32.1682 256.391 36.5096C261.335 44.4964 266.904 52.4743 274.855 57.1164C284.304 62.6328 296.143 62.2872 305.034 55.5938C309.072 52.5542 312.199 48.4277 314.389 43.6574C313.318 43.1594 309.306 41.2998 308.661 41.0003Z" fill="#505050"/>
<path d="M325.116 1.11086C321.882 1.11086 319.251 3.97698 319.251 7.49933C319.251 11.0217 321.882 13.8879 325.116 13.8879C328.349 13.8879 330.979 11.0217 330.979 7.49933C330.979 3.97698 328.349 1.11086 325.116 1.11086ZM325.116 14.9987C321.319 14.9987 318.232 11.6345 318.232 7.49933C318.232 3.36414 321.319 0.000116348 325.116 0.000116348C328.911 0.000116348 332 3.36414 332 7.49933C332 11.6345 328.911 14.9987 325.116 14.9987Z" fill="#505050"/>
<path d="M324.007 7.25443H324.833C325.388 7.25443 325.789 7.14266 326.038 6.9184C326.287 6.69432 326.412 6.36111 326.412 5.92051C326.412 5.47169 326.278 5.14993 326.009 4.95423C325.74 4.75925 325.335 4.66134 324.794 4.66134H324.007V7.25443ZM324.007 8.32893V11.4969H322.817V3.56572H324.874C325.813 3.56572 326.508 3.7574 326.96 4.14107C327.411 4.52419 327.637 5.1026 327.637 5.87713C327.637 6.86422 327.166 7.56802 326.223 7.98678L328.28 11.4969H326.925L325.182 8.32893H324.007Z" fill="#505050"/>
</svg>
