<svg width="40" height="40" viewBox="0 0 40 40" fill="none" xmlns="http://www.w3.org/2000/svg">
<path fill-rule="evenodd" clip-rule="evenodd" d="M38.7408 27C39.5549 24.8213 40 22.4626 40 20C40 8.9543 31.0457 0 20 0C8.9543 0 0 8.9543 0 20C0 22.6523 0.516268 25.1839 1.45379 27.5H4.99182C6.1058 27.5 7.12204 28.1359 7.60916 29.1377L8.44838 30.8637C8.91839 31.8303 10.3327 31.7086 10.6307 30.6759C11.2092 28.6704 14.0072 28.5544 14.7498 30.5052L14.8103 30.6643C15.2094 31.7128 16.6889 31.7234 17.103 30.6807L17.2775 30.2415C18.0804 28.2199 20.9376 28.2083 21.7569 30.2233L21.8408 30.4297C22.3409 31.6598 24.0737 31.6848 24.6091 30.4696L24.6999 30.2636C25.5993 28.2224 28.5232 28.3046 29.3064 30.3932C29.7694 31.6278 31.4906 31.6948 32.0483 30.5L32.8082 28.8716C33.341 27.7298 34.4869 27 35.7469 27H38.7408ZM38.3358 28H35.7469C34.8755 28 34.0829 28.5048 33.7144 29.2945L32.9544 30.9229C32.0221 32.9207 29.1442 32.8086 28.3701 30.7443C27.9017 29.4952 26.1529 29.446 25.615 30.6668L25.5242 30.8729C24.6326 32.8963 21.7472 32.8547 20.9144 30.8063L20.8305 30.5999C20.3507 29.4197 18.6771 29.4265 18.2069 30.6106L18.0324 31.0498C17.2816 32.9402 14.5992 32.921 13.8757 31.02L13.8152 30.8609C13.4143 29.8078 11.9038 29.8704 11.5915 30.9531C11.0396 32.8661 8.41969 33.0916 7.54906 31.301L6.70983 29.575C6.39009 28.9174 5.72303 28.5 4.99182 28.5H1.8909C5.08609 35.2955 11.9936 40 20 40C28.2013 40 35.2496 35.0636 38.3358 28ZM28 23C30.2091 23 32 19.866 32 16C32 12.134 30.2091 9 28 9C25.7909 9 24 12.134 24 16C24 19.866 25.7909 23 28 23ZM16 16C16 19.866 14.2091 23 12 23C9.79086 23 8 19.866 8 16C8 12.134 9.79086 9 12 9C14.2091 9 16 12.134 16 16Z" fill="white"/>
</svg>
