<svg width="332" height="151" viewBox="0 0 332 151" fill="none" xmlns="http://www.w3.org/2000/svg">
<path d="M114.753 26.319L114.923 28.2501C114.995 29.0569 115.029 29.7905 115.029 30.4931C115.029 43.5628 105.268 54.1961 93.2705 54.1961C81.2723 54.1961 71.5111 43.5628 71.5111 30.4931C71.5111 29.7882 71.5464 29.054 71.618 28.2501L71.7898 26.3174L65.7505 35.9458L65.7863 36.1528C68.2772 50.5367 79.836 60.9767 93.2705 60.9767C101.697 60.9767 109.73 56.7616 115.029 49.6302V58.097H121.254V36.6929L114.753 26.319Z" fill="#505050"/>
<path d="M155.956 29.7257L156.237 29.837C156.659 30.0045 157.072 30.1689 157.474 30.3315C157.875 30.4939 158.304 30.6633 158.757 30.8424L159.046 30.9563C163.912 32.8749 173.428 36.4132 174.478 42.1078L179.006 36.3849C175.344 30.0388 166.734 26.7775 161.164 24.5804L160.938 24.4916C160.479 24.3105 160.045 24.1387 159.641 23.9753C159.137 23.7715 158.615 23.5645 158.079 23.3525C153.37 21.4877 146.919 18.9332 146.919 15.2996C146.919 10.7121 152.249 6.83639 158.558 6.83639C164.866 6.83639 170.195 10.7121 170.195 15.2996V15.81H176.419V15.2996C176.419 6.89447 168.406 0.0561523 158.558 0.0561523C148.708 0.0561523 140.695 6.89447 140.695 15.2996C140.695 23.6843 149.516 27.1759 155.956 29.7257Z" fill="#505050"/>
<path d="M268.29 23.7015C271.041 13.7232 279.524 6.81276 289.131 6.81276C298.737 6.81276 307.219 13.7232 309.971 23.7015H268.29ZM264.714 30.2627H317.108C317.108 22.1517 313.918 14.3067 308.667 8.71663C303.407 3.11631 296.468 0.0317383 289.131 0.0317383C275.619 0.0317383 263.955 10.4153 261.582 25.2257L264.714 30.2627Z" fill="#505050"/>
<path d="M248.059 30.6299H199.63L196.347 35.9071C198.498 50.0241 210.418 60.9863 223.875 60.9863C231.55 60.9863 238.972 57.497 244.237 51.4131L244.558 51.0422L240.03 46.3909L239.708 46.7624C235.553 51.5624 229.93 54.2062 223.875 54.2062C214.312 54.2062 205.841 47.3342 203.062 37.4109H252.293L248.059 30.6299Z" fill="#505050"/>
<path d="M10.5488 16.339C14.2525 10.9871 19.9237 7.48232 26.0667 6.90115C32.5092 6.29112 38.9627 8.87365 43.4944 13.9083C45.9561 16.6432 47.8039 20.0179 48.815 23.6884C44.1183 23.6884 8.86458 23.6884 7.15517 23.6884C7.87971 21.0416 9.03002 18.5513 10.5488 16.339ZM308.661 41.0001C304.775 49.4299 297.249 54.1568 289.211 54.216C282.368 54.2664 276.191 50.9386 271.276 45.914C266.555 41.0875 263.081 35.1232 259.461 29.3363C256.016 23.8292 252.715 18.1776 248.596 13.224C244.322 8.0858 239.152 3.72329 233.039 1.56372C226.326 -0.808162 218.817 -0.473392 212.313 2.51098C200.472 7.94331 193.561 20.6718 186.714 31.7837C183.262 37.3854 179.674 43.0245 174.896 47.398C169.658 52.1924 163.146 54.8277 156.264 54.1274C142.146 52.6916 134.325 38.1722 127.188 26.6225C120.423 15.6723 112.7 4.09987 100.214 0.876484C93.352 -0.895156 85.9821 0.047364 79.7038 3.54331C74.1238 6.65037 69.577 11.5198 65.7246 16.8319C61.8667 22.1533 58.5452 27.9386 55.0511 33.5425C51.5306 39.1876 47.6959 44.8055 42.5844 48.865C37.0345 53.2728 30.0047 55.3004 23.2242 53.64C16.7764 52.0612 11.2213 47.2679 8.3627 40.7705C6.91268 37.475 6.23247 33.8957 6.22685 30.2503C9.90084 30.2503 49.4238 30.2503 52.3893 30.2503L55.5724 25.2023C55.4645 24.3253 55.0762 22.7587 54.8672 21.9596C54.4692 20.4362 53.9417 18.9462 53.3236 17.5127C52.1357 14.7555 50.5158 12.2514 48.6483 9.98871C40.5073 0.122354 27.4569 -2.59661 16.5208 2.70194C6.39791 7.60698 0.073737 18.5989 0.000592923 30.5107C-0.0660971 41.3106 5.49822 51.5753 14.0586 56.9444C22.7656 62.4058 33.7135 62.2019 42.4736 56.9889C50.342 52.3072 55.856 44.3743 60.7707 36.4321C63.5321 31.97 66.2208 27.4282 69.16 23.1016C71.9825 18.9457 75.1537 14.9762 79.0303 11.9475C83.1701 8.71269 88.0364 6.81439 93.1538 6.7898C98.2827 6.7652 103.174 8.60602 107.346 11.8198C111.243 14.8216 114.432 18.7805 117.264 22.9317C120.271 27.3372 123.009 31.973 125.825 36.5239C130.762 44.5009 136.318 52.4671 144.25 57.119C153.375 62.4712 164.678 62.2647 173.654 56.6397C181.38 51.7975 186.764 43.8595 191.643 35.9493C194.426 31.4391 197.142 26.8451 200.144 22.5021C203.024 18.3364 206.283 14.3801 210.27 11.4417C214.494 8.32878 219.427 6.64215 224.541 6.79964C229.595 6.95574 234.362 8.95338 238.412 12.2076C242.273 15.3098 245.425 19.3329 248.244 23.5302C251.083 27.7568 253.704 32.168 256.391 36.5094C261.335 44.4962 266.904 52.4741 274.855 57.1162C284.304 62.6326 296.143 62.287 305.034 55.5936C309.072 52.554 312.199 48.4275 314.389 43.6572C313.318 43.1592 309.306 41.2996 308.661 41.0001Z" fill="#505050"/>
<path d="M325.116 1.11074C321.882 1.11074 319.251 3.97686 319.251 7.49921C319.251 11.0216 321.882 13.8878 325.116 13.8878C328.349 13.8878 330.979 11.0216 330.979 7.49921C330.979 3.97686 328.349 1.11074 325.116 1.11074ZM325.116 14.9986C321.319 14.9986 318.232 11.6344 318.232 7.49921C318.232 3.36402 321.319 0 325.116 0C328.911 0 332 3.36402 332 7.49921C332 11.6344 328.911 14.9986 325.116 14.9986Z" fill="#505050"/>
<path d="M324.007 7.25463H324.833C325.388 7.25463 325.789 7.14286 326.038 6.9186C326.287 6.69452 326.412 6.36131 326.412 5.92071C326.412 5.47189 326.278 5.15013 326.009 4.95443C325.74 4.75945 325.335 4.66154 324.794 4.66154H324.007V7.25463ZM324.007 8.32913V11.4971H322.817V3.56592H324.874C325.813 3.56592 326.508 3.7576 326.96 4.14127C327.411 4.52439 327.637 5.1028 327.637 5.87733C327.637 6.86442 327.166 7.56822 326.223 7.98698L328.28 11.4971H326.925L325.182 8.32913H324.007Z" fill="#505050"/>
<path d="M22.32 75.72C29.76 75.72 35.04 77.37 38.16 80.67L36.36 82.65C33.48 79.83 28.92 78.42 22.68 78.42C13.32 78.42 8.64 82.14 8.64 89.58C8.64 92.46 9.78 94.77 12.06 96.51C14.34 98.19 17.1 99.48 20.34 100.38C23.64 101.28 26.91 102.24 30.15 103.26C33.45 104.22 36.24 105.81 38.52 108.03C40.8 110.19 41.94 113.04 41.94 116.58C41.94 120.72 40.23 124.02 36.81 126.48C33.39 128.94 28.44 130.17 21.96 130.17C18.78 130.17 15.63 129.75 12.51 128.91C9.45 128.07 7.17 126.84 5.67 125.22L7.47 123.24C10.53 126.06 15.24 127.47 21.6 127.47C27.42 127.47 31.8 126.39 34.74 124.23C37.74 122.07 39.24 119.55 39.24 116.67C39.24 113.67 38.1 111.24 35.82 109.38C33.54 107.52 30.75 106.14 27.45 105.24C24.21 104.28 20.94 103.32 17.64 102.36C14.4 101.34 11.64 99.78 9.36 97.68C7.08 95.58 5.94 92.82 5.94 89.4C5.94 84.78 7.47 81.36 10.53 79.14C13.65 76.86 17.58 75.72 22.32 75.72ZM101.124 79.59C99.0841 78.93 96.5641 78.6 93.5641 78.6C90.5641 78.6 88.0441 78.93 86.0041 79.59C83.9641 80.19 82.0741 81.36 80.3341 83.1C78.6541 84.78 77.3941 87.27 76.5541 90.57C75.7141 93.81 75.2941 97.92 75.2941 102.9C75.2941 107.88 75.7141 112.02 76.5541 115.32C77.3941 118.56 78.6541 121.05 80.3341 122.79C82.0741 124.47 83.9641 125.64 86.0041 126.3C88.0441 126.9 90.5641 127.2 93.5641 127.2C96.5641 127.2 99.0841 126.9 101.124 126.3C103.164 125.64 105.024 124.47 106.704 122.79C108.444 121.05 109.734 118.56 110.574 115.32C111.414 112.02 111.834 107.88 111.834 102.9C111.834 97.92 111.414 93.81 110.574 90.57C109.734 87.27 108.444 84.78 106.704 83.1C105.024 81.36 103.164 80.19 101.124 79.59ZM109.674 123.51C106.434 127.77 101.064 129.9 93.5641 129.9C86.0641 129.9 80.6941 127.77 77.4541 123.51C74.2141 119.25 72.5941 112.38 72.5941 102.9C72.5941 93.42 74.2141 86.55 77.4541 82.29C80.6941 78.03 86.0641 75.9 93.5641 75.9C101.064 75.9 106.434 78.03 109.674 82.29C112.914 86.55 114.534 93.42 114.534 102.9C114.534 112.38 112.914 119.25 109.674 123.51ZM179.284 126.3V129H149.224V76.8H151.924V126.3H179.284ZM214.224 126.3H243.564L225.114 82.83L205.494 129H202.614L225.114 75.9L247.614 129H214.224V126.3ZM299.642 102.81L311.882 129H308.912L296.312 102C296.432 101.94 296.942 101.7 297.842 101.28C298.802 100.8 299.462 100.47 299.822 100.29C300.182 100.05 300.782 99.66 301.622 99.12C302.462 98.58 303.092 98.07 303.512 97.59C303.932 97.05 304.382 96.45 304.862 95.79C305.402 95.07 305.792 94.29 306.032 93.45C306.272 92.55 306.392 91.59 306.392 90.57C306.392 86.79 304.592 84 300.992 82.2C297.392 80.4 292.922 79.5 287.582 79.5H280.382V129H277.682V76.8H287.582C294.662 76.8 300.002 78.03 303.602 80.49C307.262 82.95 309.092 86.31 309.092 90.57C309.092 93.33 308.162 95.79 306.302 97.95C304.442 100.05 302.222 101.67 299.642 102.81Z" fill="#505050"/>
</svg>
