<svg width="2400" height="425" viewBox="0 0 2400 425" fill="none" xmlns="http://www.w3.org/2000/svg">
<path d="M829.54 183.371L830.77 196.825C831.287 202.447 831.538 207.557 831.538 212.452C831.538 303.512 760.975 377.597 674.245 377.597C587.511 377.597 516.948 303.512 516.948 212.452C516.948 207.541 517.203 202.426 517.721 196.825L518.963 183.359L475.305 250.443L475.564 251.885C493.571 352.101 577.128 424.839 674.245 424.839C735.157 424.839 793.227 395.471 831.538 345.785V404.775H876.534V255.648L829.54 183.371Z" fill="#FAE211"/>
<path d="M1127.39 207.103L1129.42 207.879C1132.47 209.046 1135.46 210.191 1138.36 211.324C1141.26 212.456 1144.37 213.636 1147.64 214.883L1149.73 215.677C1184.9 229.045 1253.7 253.697 1261.28 293.372L1294.02 253.499C1267.55 209.285 1205.3 186.562 1165.04 171.255L1163.41 170.636C1160.09 169.374 1156.95 168.177 1154.03 167.039C1150.39 165.619 1146.62 164.177 1142.74 162.7C1108.7 149.707 1062.07 131.91 1062.07 106.593C1062.07 74.6311 1100.59 47.6281 1146.2 47.6281C1191.8 47.6281 1230.33 74.6311 1230.33 106.593V110.149H1275.32V106.593C1275.32 48.0327 1217.4 0.388704 1146.2 0.388704C1075 0.388704 1017.07 48.0327 1017.07 106.593C1017.07 165.011 1080.84 189.338 1127.39 207.103Z" fill="#FAE211"/>
<path d="M1939.44 165.134C1959.33 95.6124 2020.65 47.4664 2090.1 47.4664C2159.54 47.4664 2220.86 95.6124 2240.75 165.134H1939.44ZM1913.6 210.847H2292.34C2292.34 154.336 2269.29 99.6783 2231.33 60.7311C2193.3 21.7124 2143.14 0.22155 2090.1 0.22155C1992.43 0.22155 1908.11 72.5658 1890.95 175.754L1913.6 210.847Z" fill="#FAE211"/>
<path d="M1793.2 213.406H1443.1L1419.38 250.173C1434.93 348.53 1521.1 424.906 1618.38 424.906C1673.85 424.906 1727.51 400.595 1765.57 358.207L1767.89 355.623L1735.15 323.216L1732.83 325.805C1702.79 359.247 1662.15 377.667 1618.38 377.667C1549.24 377.667 1488.01 329.789 1467.92 260.651H1823.8L1793.2 213.406" fill="#FAE211"/>
<path d="M76.2566 113.838C103.03 76.5503 144.027 52.1318 188.434 48.0827C235.007 43.8325 281.658 61.8256 314.417 96.9029C332.213 115.958 345.57 139.47 352.879 165.043C318.927 165.043 64.0813 165.043 51.7241 165.043C56.9618 146.602 65.2773 129.252 76.2566 113.838V113.838ZM2231.28 285.658C2203.19 344.39 2148.79 377.323 2090.68 377.736C2041.21 378.087 1996.56 354.901 1961.03 319.894C1926.91 286.267 1901.79 244.712 1875.62 204.394C1850.71 166.024 1826.86 126.648 1797.08 92.1353C1766.19 56.3364 1728.81 25.9419 1684.62 10.8957C1636.09 -5.6298 1581.81 -3.29738 1534.79 17.4954C1449.19 55.3437 1399.24 144.026 1349.74 221.445C1324.79 260.474 1298.85 299.762 1264.31 330.233C1226.44 363.637 1179.37 381.998 1129.62 377.119C1027.56 367.115 971.023 265.955 919.434 185.486C870.529 109.193 814.697 28.5656 724.436 6.10752C674.834 -6.2359 621.558 0.33084 576.172 24.6879C535.835 46.3355 502.966 80.2617 475.117 117.272C447.229 154.348 423.219 194.656 397.96 233.699C372.51 273.03 344.79 312.171 307.839 340.454C267.719 371.164 216.901 385.291 167.886 373.722C121.275 362.723 81.118 329.327 60.4533 284.058C49.9712 261.097 45.054 236.16 45.0134 210.761C71.5723 210.761 357.281 210.761 378.718 210.761L401.728 175.591C400.948 169.481 398.141 158.566 396.631 152.998C393.753 142.385 389.94 132.003 385.472 122.016C376.885 102.805 365.174 85.3592 351.674 69.5944C292.824 0.85333 198.484 -18.0903 119.427 18.8259C46.25 53.0004 0.533038 129.584 0.00428619 212.575C-0.47781 287.821 39.7462 359.338 101.629 396.745C164.571 434.796 243.712 433.375 307.038 397.055C363.918 364.437 403.778 309.167 439.307 253.831C459.268 222.743 478.705 191.099 499.952 160.955C520.356 132 543.279 104.344 571.303 83.2416C601.23 60.7041 636.407 47.4783 673.401 47.3069C710.477 47.1355 745.834 59.9609 775.992 82.3517C804.163 103.266 827.218 130.849 847.693 159.771C869.431 190.466 889.225 222.764 909.577 254.471C945.264 310.048 985.431 365.551 1042.77 397.961C1108.74 435.251 1190.45 433.813 1255.33 394.622C1311.18 360.885 1350.1 305.58 1385.37 250.468C1405.49 219.044 1425.13 187.037 1446.83 156.778C1467.64 127.755 1491.21 100.19 1520.02 79.7179C1550.56 58.0293 1586.22 46.2782 1623.19 47.3754C1659.72 48.4631 1694.19 62.3811 1723.46 85.054C1751.37 106.667 1774.16 134.697 1794.53 163.941C1815.06 193.389 1834.01 224.123 1853.43 254.37C1889.17 310.016 1929.42 365.6 1986.91 397.942C2055.21 436.376 2140.8 433.968 2205.07 387.334C2234.25 366.156 2256.86 337.406 2272.69 304.17C2264.95 300.701 2235.95 287.744 2231.28 285.658" fill="#FAE211"/>
<path d="M2350.24 7.7388C2326.86 7.7388 2307.84 27.7077 2307.84 52.2487C2307.84 76.7896 2326.86 96.759 2350.24 96.759C2373.61 96.759 2392.62 76.7896 2392.62 52.2487C2392.62 27.7077 2373.61 7.7388 2350.24 7.7388ZM2350.24 104.498C2322.79 104.498 2300.47 81.0595 2300.47 52.2487C2300.47 23.4379 2322.79 6.07499e-06 2350.24 6.07499e-06C2377.67 6.07499e-06 2400 23.4379 2400 52.2487C2400 81.0595 2377.67 104.498 2350.24 104.498Z" fill="#FAE211"/>
<path d="M2342.22 50.5423H2348.19C2352.2 50.5423 2355.1 49.7636 2356.9 48.2011C2358.7 46.6399 2359.61 44.3183 2359.61 41.2486C2359.61 38.1216 2358.64 35.8798 2356.69 34.5163C2354.75 33.1578 2351.82 32.4757 2347.91 32.4757H2342.22V50.5423ZM2342.22 58.0286V80.1009H2333.61V24.8422H2348.48C2355.28 24.8422 2360.3 26.1778 2363.56 28.8508C2366.83 31.5202 2368.46 35.55 2368.46 40.9464C2368.46 47.8237 2365.05 52.7272 2358.24 55.6448L2373.11 80.1009H2363.31L2350.72 58.0286H2342.22Z" fill="#FAE211"/>
</svg>
