<svg width="100" height="100" viewBox="0 0 100 100" fill="none" xmlns="http://www.w3.org/2000/svg">
<path d="M53.0311 8.25L87.6721 68.25C89.0193 70.5833 87.3353 73.5 84.641 73.5H15.359C12.6647 73.5 10.9807 70.5833 12.3279 68.25L46.9689 8.25C48.3161 5.91667 51.6839 5.91667 53.0311 8.25Z" stroke="#FF4D00" stroke-width="3"/>
<path d="M52.0264 53.9658H47.9492L47.6318 28.4531H52.3682L52.0264 53.9658ZM47.4609 61.7295C47.4609 60.9971 47.6807 60.3867 48.1201 59.8984C48.5758 59.3939 49.2432 59.1416 50.1221 59.1416C51.001 59.1416 51.6683 59.3939 52.124 59.8984C52.5798 60.3867 52.8076 60.9971 52.8076 61.7295C52.8076 62.4619 52.5798 63.0723 52.124 63.5605C51.6683 64.0326 51.001 64.2686 50.1221 64.2686C49.2432 64.2686 48.5758 64.0326 48.1201 63.5605C47.6807 63.0723 47.4609 62.4619 47.4609 61.7295Z" fill="#FF4D00"/>
</svg>
